<?xml version="1.0" encoding="UTF-8"?>
<svg id="Layer_1" data-name="Layer 1" xmlns="http://www.w3.org/2000/svg" viewBox="0 0 10.91 14">
  <defs>
    <style>
      .cls-1 {
        fill: #4a4a4a;
      }
      @media (prefers-color-scheme: dark) {
        .cls-1 { fill: #d8d8d8; }
      }
    </style>
  </defs>
  <g id="Layer_1-2" data-name="Layer_1">
    <path class="cls-1" d="M0,3c0-.56.45-1,1-1v8c0,1.66,1.34,3,3,3h5c0,.56-.46,1-1,1H3.79c-2.11,0-3.79-1.71-3.79-3.79,0,0,0-7.21,0-7.21Z"/>
    <path class="cls-1" d="M8.96,11.99c1.05.01,1.95-.89,1.95-2V2c0-1.09-.9-2-2-2H3.95c-1.05,0-1.95.89-1.95,2v8c0,1.1.9,2,2.01,2h4.95ZM8.96,11H3.99c-.55,0-.99-.45-.99-1V2c0-.55.45-.99.95-.99h4.96c.55,0,.99.45.99.99v8c0,.56-.45,1-.95,1Z"/>
  </g>
</svg>