<svg xmlns="http://www.w3.org/2000/svg" xml:space="preserve" width="18" height="18" style="shape-rendering:geometricPrecision;text-rendering:geometricPrecision;image-rendering:optimizeQuality;fill-rule:evenodd;clip-rule:evenodd" viewBox="0 0 0.116 0.116"><path id="Layer_x0020_1" d="M.047 0c.026 0 .047.021.047.047a.04.04 0 0 1-.011.029l.032.032.001.004a.004.004 0 0 1-.004.004L.109.115H.108L.076.083a.04.04 0 0 1-.029.011.047.047 0 1 1 0-.094m0 .01A.036.036 0 0 0 .01.047a.037.037 0 1 0 .074 0A.037.037 0 0 0 .047.01" style="fill:#212121;fill-rule:nonzero"/></svg>