<?xml version="1.0" encoding="UTF-8"?>
<svg id="Layer_1" data-name="Layer 1" xmlns="http://www.w3.org/2000/svg" viewBox="0 0 9.57 11.07">
  <defs>
    <style>
      .cls-1 {
        fill: #4a4a4a;
      }
      @media (prefers-color-scheme: dark) {
        .cls-1 { fill: #d8d8d8; }
      }
    </style>
  </defs>
  <g id="Layer_1-2" data-name="Layer_1">
    <path class="cls-1" d="M2.94,9.13c-.28,0-.52-.1-.71-.29s-.29-.43-.29-.71V1.01c0-.28.1-.52.29-.71.19-.19.43-.29.71-.29h5.62c.28,0,.52.1.71.29.19.19.29.43.29.71v7.12c0,.28-.1.52-.29.71-.19.19-.43.29-.71.29,0,0-5.62,0-5.62,0ZM2.94,8.32h5.62s.09-.02.13-.06c.04-.04.06-.08.06-.13V1.01s-.02-.09-.06-.13c-.04-.04-.08-.06-.13-.06H2.94s-.09.02-.13.06c-.04.04-.06.08-.06.13v7.12s.02.09.06.13c.04.04.08.06.13.06ZM1.01,11.07c-.28,0-.52-.1-.71-.29-.19-.19-.29-.43-.29-.71V2.13h.81v7.93s.02.09.06.13c.04.04.08.06.13.06h6.43v.81H1h0ZM2.75,8.32V.82v7.5Z"/>
  </g>
</svg>